<svg width="27" height="48" viewBox="0 0 27 48" fill="none" xmlns="http://www.w3.org/2000/svg">
<path d="M1.04426 46.0721C0.394168 45.4218 0.0289667 44.54 0.0289666 43.6205C0.0289665 42.7009 0.394168 41.8191 1.04426 41.1688L18.2093 24.0037L1.04426 6.83866C0.412589 6.18464 0.063066 5.30869 0.0709668 4.39948C0.0788676 3.49026 0.44356 2.62052 1.0865 1.97758C1.72944 1.33464 2.59918 0.969951 3.50839 0.96205C4.41761 0.954149 5.29355 1.30367 5.94757 1.93534L25.5643 21.5521C26.2144 22.2024 26.5796 23.0842 26.5796 24.0037C26.5796 24.9232 26.2144 25.8051 25.5643 26.4554L5.94757 46.0721C5.29728 46.7222 4.41542 47.0874 3.49592 47.0874C2.57641 47.0874 1.69455 46.7222 1.04426 46.0721Z" fill="#252C65"/>
</svg>
