<svg width="82" height="82" viewBox="0 0 82 82" fill="none" xmlns="http://www.w3.org/2000/svg">
<circle cx="41" cy="41" r="41" transform="rotate(180 41 41)" fill="white"/>
<path d="M31.0443 63.0721C30.3942 62.4218 30.029 61.54 30.029 60.6205C30.029 59.7009 30.3942 58.8191 31.0443 58.1688L48.2093 41.0037L31.0443 23.8387C30.4126 23.1846 30.0631 22.3087 30.071 21.3995C30.0789 20.4903 30.4436 19.6205 31.0865 18.9776C31.7294 18.3346 32.5992 17.9699 33.5084 17.962C34.4176 17.9541 35.2936 18.3037 35.9476 18.9353L55.5643 38.5521C56.2144 39.2024 56.5796 40.0842 56.5796 41.0037C56.5796 41.9232 56.2144 42.8051 55.5643 43.4554L35.9476 63.0721C35.2973 63.7222 34.4154 64.0874 33.4959 64.0874C32.5764 64.0874 31.6945 63.7222 31.0443 63.0721Z" fill="#252C65"/>
</svg>
