<svg width="82" height="82" viewBox="0 0 82 82" fill="none" xmlns="http://www.w3.org/2000/svg">
<circle cx="41" cy="41" r="41" fill="white"/>
<path d="M49.5353 19.0143C50.1854 19.6646 50.5506 20.5465 50.5506 21.466C50.5506 22.3855 50.1854 23.2673 49.5353 23.9176L32.3703 41.0827L49.5353 58.2478C50.167 58.9018 50.5165 59.7777 50.5086 60.687C50.5007 61.5962 50.136 62.4659 49.4931 63.1088C48.8501 63.7518 47.9804 64.1165 47.0712 64.1244C46.162 64.1323 45.286 63.7828 44.632 63.1511L25.0153 43.5344C24.3652 42.8841 24 42.0022 24 41.0827C24 40.1632 24.3652 39.2813 25.0153 38.631L44.632 19.0143C45.2823 18.3642 46.1642 17.999 47.0837 17.999C48.0032 17.999 48.885 18.3642 49.5353 19.0143Z" fill="#252C65"/>
</svg>
