<svg width="27" height="47" viewBox="0 0 27 47" fill="none" xmlns="http://www.w3.org/2000/svg">
<path d="M25.5353 1.01529C26.1854 1.66558 26.5506 2.54744 26.5506 3.46695C26.5506 4.38646 26.1854 5.26832 25.5353 5.91861L8.37026 23.0837L25.5353 40.2487C26.167 40.9028 26.5165 41.7787 26.5086 42.6879C26.5007 43.5971 26.136 44.4669 25.4931 45.1098C24.8501 45.7528 23.9804 46.1175 23.0712 46.1254C22.162 46.1333 21.286 45.7837 20.632 45.1521L1.01529 25.5353C0.365201 24.885 0 24.0032 0 23.0837C0 22.1642 0.365201 21.2823 1.01529 20.632L20.632 1.01529C21.2823 0.365201 22.1642 0 23.0837 0C24.0032 0 24.885 0.365201 25.5353 1.01529Z" fill="#252C65" fill-opacity="0.5"/>
</svg>
